<mxfile host="app.diagrams.net" modified="2023-05-13T20:16:36.863Z" agent="Mozilla/5.0 (Macintosh; Intel Mac OS X 10_15_7) AppleWebKit/537.36 (KHTML, like Gecko) Chrome/113.0.0.0 Safari/537.36" etag="1sS-u5qiO14RkzC6lOgD" version="21.3.0" type="device">
  <diagram name="Page-1" id="c7h326OzE_-vylnMu65P">
    <mxGraphModel dx="2052" dy="1120" grid="1" gridSize="10" guides="1" tooltips="1" connect="1" arrows="1" fold="1" page="1" pageScale="1" pageWidth="827" pageHeight="1169" math="0" shadow="0">
      <root>
        <mxCell id="0" />
        <mxCell id="1" parent="0" />
        <mxCell id="3b0yyncNhhbkPXDSjd54-1" value="&lt;font style=&quot;font-size: 14px;&quot;&gt;Start&lt;/font&gt;" style="strokeWidth=2;html=1;shape=mxgraph.flowchart.terminator;whiteSpace=wrap;" vertex="1" parent="1">
          <mxGeometry x="260" y="70" width="100" height="60" as="geometry" />
        </mxCell>
        <mxCell id="3b0yyncNhhbkPXDSjd54-2" value="&lt;font style=&quot;font-size: 14px;&quot;&gt;End&lt;/font&gt;" style="strokeWidth=2;html=1;shape=mxgraph.flowchart.terminator;whiteSpace=wrap;" vertex="1" parent="1">
          <mxGeometry x="260" y="1030" width="100" height="60" as="geometry" />
        </mxCell>
        <mxCell id="3b0yyncNhhbkPXDSjd54-5" value="&lt;font style=&quot;font-size: 13px;&quot;&gt;First player makes 4 throw attempts and counts the successful baskets/shots made.&lt;/font&gt;" style="rounded=0;whiteSpace=wrap;html=1;" vertex="1" parent="1">
          <mxGeometry x="235" y="210" width="150" height="80" as="geometry" />
        </mxCell>
        <mxCell id="3b0yyncNhhbkPXDSjd54-6" value="&lt;font style=&quot;font-size: 13px;&quot;&gt;Second player makes 4 throw attempts and counts the successful baskets/shots made.&lt;/font&gt;" style="rounded=0;whiteSpace=wrap;html=1;" vertex="1" parent="1">
          <mxGeometry x="235" y="370" width="150" height="80" as="geometry" />
        </mxCell>
        <mxCell id="3b0yyncNhhbkPXDSjd54-11" value="" style="endArrow=none;html=1;rounded=0;" edge="1" parent="1">
          <mxGeometry width="50" height="50" relative="1" as="geometry">
            <mxPoint x="375" y="570" as="sourcePoint" />
            <mxPoint x="510" y="570" as="targetPoint" />
          </mxGeometry>
        </mxCell>
        <mxCell id="3b0yyncNhhbkPXDSjd54-12" value="" style="endArrow=classic;html=1;rounded=0;" edge="1" parent="1">
          <mxGeometry width="50" height="50" relative="1" as="geometry">
            <mxPoint x="510" y="250.17" as="sourcePoint" />
            <mxPoint x="385" y="249.67" as="targetPoint" />
          </mxGeometry>
        </mxCell>
        <mxCell id="3b0yyncNhhbkPXDSjd54-14" value="Yes" style="text;html=1;align=center;verticalAlign=middle;resizable=0;points=[];autosize=1;strokeColor=none;fillColor=none;fontSize=17;" vertex="1" parent="1">
          <mxGeometry x="415" y="547" width="50" height="30" as="geometry" />
        </mxCell>
        <mxCell id="3b0yyncNhhbkPXDSjd54-16" value="&lt;font style=&quot;font-size: 13px;&quot;&gt;Did Player 1 score more baskets than Player 2?&lt;/font&gt;" style="shape=parallelogram;perimeter=parallelogramPerimeter;whiteSpace=wrap;html=1;fixedSize=1;" vertex="1" parent="1">
          <mxGeometry x="222.5" y="700" width="175" height="90" as="geometry" />
        </mxCell>
        <mxCell id="3b0yyncNhhbkPXDSjd54-19" value="&lt;font style=&quot;font-size: 13px;&quot;&gt;Was this the first tie game?&lt;/font&gt;" style="shape=parallelogram;perimeter=parallelogramPerimeter;whiteSpace=wrap;html=1;fixedSize=1;" vertex="1" parent="1">
          <mxGeometry x="440" y="440" width="150" height="80" as="geometry" />
        </mxCell>
        <mxCell id="3b0yyncNhhbkPXDSjd54-20" value="&lt;span style=&quot;font-size: 13px;&quot;&gt;Start counting the number of tie games. With now count being equal to 1.&lt;/span&gt;" style="rounded=0;whiteSpace=wrap;html=1;" vertex="1" parent="1">
          <mxGeometry x="440" y="280" width="150" height="80" as="geometry" />
        </mxCell>
        <mxCell id="3b0yyncNhhbkPXDSjd54-21" value="" style="endArrow=classic;html=1;rounded=0;" edge="1" parent="1">
          <mxGeometry width="50" height="50" relative="1" as="geometry">
            <mxPoint x="310" y="130" as="sourcePoint" />
            <mxPoint x="310" y="209" as="targetPoint" />
          </mxGeometry>
        </mxCell>
        <mxCell id="3b0yyncNhhbkPXDSjd54-22" value="" style="endArrow=classic;html=1;rounded=0;" edge="1" parent="1">
          <mxGeometry width="50" height="50" relative="1" as="geometry">
            <mxPoint x="310" y="290" as="sourcePoint" />
            <mxPoint x="310" y="369" as="targetPoint" />
          </mxGeometry>
        </mxCell>
        <mxCell id="3b0yyncNhhbkPXDSjd54-23" value="" style="endArrow=classic;html=1;rounded=0;" edge="1" parent="1">
          <mxGeometry width="50" height="50" relative="1" as="geometry">
            <mxPoint x="310" y="450" as="sourcePoint" />
            <mxPoint x="310" y="529" as="targetPoint" />
          </mxGeometry>
        </mxCell>
        <mxCell id="3b0yyncNhhbkPXDSjd54-25" value="Yes" style="text;html=1;align=center;verticalAlign=middle;resizable=0;points=[];autosize=1;strokeColor=none;fillColor=none;fontSize=17;" vertex="1" parent="1">
          <mxGeometry x="465" y="390" width="50" height="30" as="geometry" />
        </mxCell>
        <mxCell id="3b0yyncNhhbkPXDSjd54-27" value="" style="endArrow=none;html=1;rounded=0;exitX=0.467;exitY=-0.005;exitDx=0;exitDy=0;exitPerimeter=0;" edge="1" parent="1" source="3b0yyncNhhbkPXDSjd54-20">
          <mxGeometry width="50" height="50" relative="1" as="geometry">
            <mxPoint x="510" y="260" as="sourcePoint" />
            <mxPoint x="510" y="250" as="targetPoint" />
          </mxGeometry>
        </mxCell>
        <mxCell id="3b0yyncNhhbkPXDSjd54-29" value="No" style="text;html=1;align=center;verticalAlign=middle;resizable=0;points=[];autosize=1;strokeColor=none;fillColor=none;fontSize=17;" vertex="1" parent="1">
          <mxGeometry x="299" y="640" width="50" height="30" as="geometry" />
        </mxCell>
        <mxCell id="3b0yyncNhhbkPXDSjd54-30" value="" style="endArrow=classic;html=1;rounded=0;" edge="1" parent="1">
          <mxGeometry width="50" height="50" relative="1" as="geometry">
            <mxPoint x="310" y="620" as="sourcePoint" />
            <mxPoint x="310" y="699" as="targetPoint" />
          </mxGeometry>
        </mxCell>
        <mxCell id="3b0yyncNhhbkPXDSjd54-31" value="" style="endArrow=classic;html=1;rounded=0;" edge="1" parent="1">
          <mxGeometry width="50" height="50" relative="1" as="geometry">
            <mxPoint x="510" y="440" as="sourcePoint" />
            <mxPoint x="510" y="360" as="targetPoint" />
          </mxGeometry>
        </mxCell>
        <mxCell id="3b0yyncNhhbkPXDSjd54-32" value="" style="endArrow=classic;html=1;rounded=0;" edge="1" parent="1">
          <mxGeometry width="50" height="50" relative="1" as="geometry">
            <mxPoint x="510" y="570" as="sourcePoint" />
            <mxPoint x="510" y="520" as="targetPoint" />
          </mxGeometry>
        </mxCell>
        <mxCell id="3b0yyncNhhbkPXDSjd54-33" value="Increase the count of number of tie games by 1." style="rounded=0;whiteSpace=wrap;html=1;" vertex="1" parent="1">
          <mxGeometry x="617" y="320" width="120" height="60" as="geometry" />
        </mxCell>
        <mxCell id="3b0yyncNhhbkPXDSjd54-34" value="" style="endArrow=classic;html=1;rounded=0;entryX=0.444;entryY=0.992;entryDx=0;entryDy=0;entryPerimeter=0;" edge="1" parent="1" target="3b0yyncNhhbkPXDSjd54-33">
          <mxGeometry width="50" height="50" relative="1" as="geometry">
            <mxPoint x="670" y="480" as="sourcePoint" />
            <mxPoint x="670" y="400" as="targetPoint" />
          </mxGeometry>
        </mxCell>
        <mxCell id="3b0yyncNhhbkPXDSjd54-35" value="" style="endArrow=none;html=1;rounded=0;exitX=1;exitY=0.5;exitDx=0;exitDy=0;" edge="1" parent="1" source="3b0yyncNhhbkPXDSjd54-19">
          <mxGeometry width="50" height="50" relative="1" as="geometry">
            <mxPoint x="590" y="480" as="sourcePoint" />
            <mxPoint x="670" y="480" as="targetPoint" />
          </mxGeometry>
        </mxCell>
        <mxCell id="3b0yyncNhhbkPXDSjd54-36" value="No" style="text;html=1;align=center;verticalAlign=middle;resizable=0;points=[];autosize=1;strokeColor=none;fillColor=none;fontSize=17;" vertex="1" parent="1">
          <mxGeometry x="600" y="455" width="50" height="30" as="geometry" />
        </mxCell>
        <mxCell id="3b0yyncNhhbkPXDSjd54-37" value="" style="endArrow=classic;html=1;rounded=0;entryX=1;entryY=0.25;entryDx=0;entryDy=0;" edge="1" parent="1" target="3b0yyncNhhbkPXDSjd54-5">
          <mxGeometry width="50" height="50" relative="1" as="geometry">
            <mxPoint x="670" y="230" as="sourcePoint" />
            <mxPoint x="660" y="190" as="targetPoint" />
          </mxGeometry>
        </mxCell>
        <mxCell id="3b0yyncNhhbkPXDSjd54-38" value="" style="endArrow=none;html=1;rounded=0;entryX=0.44;entryY=0.013;entryDx=0;entryDy=0;entryPerimeter=0;" edge="1" parent="1" target="3b0yyncNhhbkPXDSjd54-33">
          <mxGeometry width="50" height="50" relative="1" as="geometry">
            <mxPoint x="670" y="230" as="sourcePoint" />
            <mxPoint x="720" y="250" as="targetPoint" />
          </mxGeometry>
        </mxCell>
        <mxCell id="3b0yyncNhhbkPXDSjd54-39" value="&lt;font style=&quot;font-size: 13px;&quot;&gt;Was the game a tie?&lt;/font&gt;" style="shape=parallelogram;perimeter=parallelogramPerimeter;whiteSpace=wrap;html=1;fixedSize=1;" vertex="1" parent="1">
          <mxGeometry x="220" y="530" width="175" height="90" as="geometry" />
        </mxCell>
        <mxCell id="3b0yyncNhhbkPXDSjd54-41" value="" style="endArrow=classic;html=1;rounded=0;" edge="1" parent="1">
          <mxGeometry width="50" height="50" relative="1" as="geometry">
            <mxPoint x="310" y="790" as="sourcePoint" />
            <mxPoint x="310" y="869" as="targetPoint" />
          </mxGeometry>
        </mxCell>
        <mxCell id="3b0yyncNhhbkPXDSjd54-42" value="Yes" style="text;html=1;align=center;verticalAlign=middle;resizable=0;points=[];autosize=1;strokeColor=none;fillColor=none;fontSize=17;" vertex="1" parent="1">
          <mxGeometry x="305" y="817" width="50" height="30" as="geometry" />
        </mxCell>
        <mxCell id="3b0yyncNhhbkPXDSjd54-43" value="" style="endArrow=classic;html=1;rounded=0;" edge="1" parent="1">
          <mxGeometry width="50" height="50" relative="1" as="geometry">
            <mxPoint x="389" y="740" as="sourcePoint" />
            <mxPoint x="489" y="740" as="targetPoint" />
          </mxGeometry>
        </mxCell>
        <mxCell id="3b0yyncNhhbkPXDSjd54-44" value="No" style="text;html=1;align=center;verticalAlign=middle;resizable=0;points=[];autosize=1;strokeColor=none;fillColor=none;fontSize=17;" vertex="1" parent="1">
          <mxGeometry x="410" y="715" width="50" height="30" as="geometry" />
        </mxCell>
        <mxCell id="3b0yyncNhhbkPXDSjd54-45" value="&lt;font style=&quot;font-size: 13px;&quot;&gt;Player 1 is the Winner.&lt;/font&gt;" style="rounded=0;whiteSpace=wrap;html=1;" vertex="1" parent="1">
          <mxGeometry x="235" y="870" width="150" height="80" as="geometry" />
        </mxCell>
        <mxCell id="3b0yyncNhhbkPXDSjd54-46" value="Player 2 is the Winner." style="rounded=0;whiteSpace=wrap;html=1;" vertex="1" parent="1">
          <mxGeometry x="490" y="700" width="150" height="80" as="geometry" />
        </mxCell>
        <mxCell id="3b0yyncNhhbkPXDSjd54-47" value="" style="endArrow=classic;html=1;rounded=0;" edge="1" parent="1">
          <mxGeometry width="50" height="50" relative="1" as="geometry">
            <mxPoint x="310" y="950" as="sourcePoint" />
            <mxPoint x="310" y="1029" as="targetPoint" />
          </mxGeometry>
        </mxCell>
        <mxCell id="3b0yyncNhhbkPXDSjd54-48" value="" style="endArrow=classic;html=1;rounded=0;entryX=1;entryY=0.5;entryDx=0;entryDy=0;entryPerimeter=0;" edge="1" parent="1" target="3b0yyncNhhbkPXDSjd54-2">
          <mxGeometry width="50" height="50" relative="1" as="geometry">
            <mxPoint x="560" y="1060" as="sourcePoint" />
            <mxPoint x="380" y="1059" as="targetPoint" />
          </mxGeometry>
        </mxCell>
        <mxCell id="3b0yyncNhhbkPXDSjd54-49" value="" style="endArrow=none;html=1;rounded=0;entryX=0.5;entryY=1;entryDx=0;entryDy=0;" edge="1" parent="1">
          <mxGeometry width="50" height="50" relative="1" as="geometry">
            <mxPoint x="560" y="1060" as="sourcePoint" />
            <mxPoint x="560" y="780" as="targetPoint" />
          </mxGeometry>
        </mxCell>
      </root>
    </mxGraphModel>
  </diagram>
</mxfile>
